<svg class="diagram-root" style="background: #f5f6f6" xmlns="http://www.w3.org/2000/svg" xmlns:xlink="http://www.w3.org/1999/xlink"><style>.diagram-root { font-family: "Helvetica Neue", sans-serif; font-size: 12px; } .t { overflow: visible; } .t-bg { y: 40; fill: #fff;   } .th { fill: #005aa0;   } .tht { fill: #fff; font-size: 14px;  } .tf { fill: #323c46; overflow: visible; } .tf.pk { fill: #005aa0; font-weight: bold; } .tf.fk { font-weight: bold; } .ty { fill: #adb1b5; font-weight: normal; text-anchor: end; } .r { fill: transparent; stroke: #c3c3c3; stroke-width: 1; } .l { stroke: 1; } .i { fill: #c2c7ce; stroke: #c2c7ce; } .i.ix { fill: #afb3b6; stroke: #000; } .fa { fill: transparent; overflow: visible; } .fa .bg.hover { fill: #f7f7f7; } .c { cy: 12; r: 4; stroke: #d2d2dc; fill: #d2d2dc; } .hr { fill: transparent; stroke: #323c46; stroke-opacity: 0.035; stroke-width: 13; } .dc { stroke: #fa5a3c; fill: #fa5a3c; } .x { stroke: white; stroke-width: 1; } .hl .th { fill: #1b9bff; } .hl .tht {  } .fhl .bg { fill: #e7f4ff; } .fhls .bg {  } .r.hl { stroke: #1b9bff; } .dim { opacity: 0.25; }</style><g class="drawing-wrapper" transform="translate(2, 18) scale(1,1)"><g class="rs"><path d="M 445.74 97 m -1, 0 a 1,1 0 1,0 2,0 a 1,1 0 1,0 -2,0 M 445.74 97 m -0.5, 0 a 0.5,0.5 0 1,0 1,0 a 0.5,0.5 0 1,0 -1,0  M445.74 97 L445.74 97 457.74 97 M 445.74 103 m -1, 0 a 1,1 0 1,0 2,0 a 1,1 0 1,0 -2,0 M 445.74 103 m -0.5, 0 a 0.5,0.5 0 1,0 1,0 a 0.5,0.5 0 1,0 -1,0  M445.74 103 L445.74 103 452.74 97 445.74 91 M 445.74 91 m -1, 0 a 1,1 0 1,0 2,0 a 1,1 0 1,0 -2,0 M 445.74 91 m -0.5, 0 a 0.5,0.5 0 1,0 1,0 a 0.5,0.5 0 1,0 -1,0  M457.74 97 Q 472.81 97, 487.87 254.13 T 518 411.25 M 530 411.25 m -1, 0 a 1,1 0 1,0 2,0 a 1,1 0 1,0 -2,0 M 530 411.25 m -0.5, 0 a 0.5,0.5 0 1,0 1,0 a 0.5,0.5 0 1,0 -1,0  M530 411.25 L530 411.25 518 411.25 M524 417.25 L524 417.25 524 405.25" id="h211156328" class="r"></path><path d="M 277.25 122 m -1, 0 a 1,1 0 1,0 2,0 a 1,1 0 1,0 -2,0 M 277.25 122 m -0.5, 0 a 0.5,0.5 0 1,0 1,0 a 0.5,0.5 0 1,0 -1,0  M277.25 122 L277.25 122 265.25 122 M 277.25 128 m -1, 0 a 1,1 0 1,0 2,0 a 1,1 0 1,0 -2,0 M 277.25 128 m -0.5, 0 a 0.5,0.5 0 1,0 1,0 a 0.5,0.5 0 1,0 -1,0  M277.25 128 L277.25 128 270.25 122 277.25 116 M 277.25 116 m -1, 0 a 1,1 0 1,0 2,0 a 1,1 0 1,0 -2,0 M 277.25 116 m -0.5, 0 a 0.5,0.5 0 1,0 1,0 a 0.5,0.5 0 1,0 -1,0  M265.25 122 Q 249.06 122, 232.86 104.5 T 200.47 87 M 188.47 87 m -1, 0 a 1,1 0 1,0 2,0 a 1,1 0 1,0 -2,0 M 188.47 87 m -0.5, 0 a 0.5,0.5 0 1,0 1,0 a 0.5,0.5 0 1,0 -1,0  M188.47 87 L188.47 87 200.47 87 M194.47 93 L194.47 93 194.47 81" id="h1537058300" class="r"></path><path d="M 537 171 m -1, 0 a 1,1 0 1,0 2,0 a 1,1 0 1,0 -2,0 M 537 171 m -0.5, 0 a 0.5,0.5 0 1,0 1,0 a 0.5,0.5 0 1,0 -1,0  M537 171 L537 171 525 171 M 537 177 m -1, 0 a 1,1 0 1,0 2,0 a 1,1 0 1,0 -2,0 M 537 177 m -0.5, 0 a 0.5,0.5 0 1,0 1,0 a 0.5,0.5 0 1,0 -1,0  M537 177 L537 177 530 171 537 165 M 537 165 m -1, 0 a 1,1 0 1,0 2,0 a 1,1 0 1,0 -2,0 M 537 165 m -0.5, 0 a 0.5,0.5 0 1,0 1,0 a 0.5,0.5 0 1,0 -1,0  M525 171 Q 508.19 171, 491.37 134 T 457.74 97 M 445.74 97 m -1, 0 a 1,1 0 1,0 2,0 a 1,1 0 1,0 -2,0 M 445.74 97 m -0.5, 0 a 0.5,0.5 0 1,0 1,0 a 0.5,0.5 0 1,0 -1,0  M445.74 97 L445.74 97 457.74 97 M451.74 103 L451.74 103 451.74 91" id="h3177548053" class="r"></path><path d="M 678.83 285.25 m -1, 0 a 1,1 0 1,0 2,0 a 1,1 0 1,0 -2,0 M 678.83 285.25 m -0.5, 0 a 0.5,0.5 0 1,0 1,0 a 0.5,0.5 0 1,0 -1,0  M678.83 285.25 L678.83 285.25 690.83 285.25 M 678.83 291.25 m -1, 0 a 1,1 0 1,0 2,0 a 1,1 0 1,0 -2,0 M 678.83 291.25 m -0.5, 0 a 0.5,0.5 0 1,0 1,0 a 0.5,0.5 0 1,0 -1,0  M678.83 291.25 L678.83 291.25 685.83 285.25 678.83 279.25 M 678.83 279.25 m -1, 0 a 1,1 0 1,0 2,0 a 1,1 0 1,0 -2,0 M 678.83 279.25 m -0.5, 0 a 0.5,0.5 0 1,0 1,0 a 0.5,0.5 0 1,0 -1,0  M690.83 285.25 Q 706.25 285.25, 721.67 189.13 T 752.5 93 M 764.5 93 m -1, 0 a 1,1 0 1,0 2,0 a 1,1 0 1,0 -2,0 M 764.5 93 m -0.5, 0 a 0.5,0.5 0 1,0 1,0 a 0.5,0.5 0 1,0 -1,0  M764.5 93 L764.5 93 752.5 93 M758.5 99 L758.5 99 758.5 87" id="h565298559" class="r"></path><path d="M 535 310.25 m -1, 0 a 1,1 0 1,0 2,0 a 1,1 0 1,0 -2,0 M 535 310.25 m -0.5, 0 a 0.5,0.5 0 1,0 1,0 a 0.5,0.5 0 1,0 -1,0  M535 310.25 L535 310.25 523 310.25 M 535 316.25 m -1, 0 a 1,1 0 1,0 2,0 a 1,1 0 1,0 -2,0 M 535 316.25 m -0.5, 0 a 0.5,0.5 0 1,0 1,0 a 0.5,0.5 0 1,0 -1,0  M535 316.25 L535 316.25 528 310.25 535 304.25 M 535 304.25 m -1, 0 a 1,1 0 1,0 2,0 a 1,1 0 1,0 -2,0 M 535 304.25 m -0.5, 0 a 0.5,0.5 0 1,0 1,0 a 0.5,0.5 0 1,0 -1,0  M523 310.25 Q 506.69 310.25, 490.37 203.63 T 457.74 97 M 445.74 97 m -1, 0 a 1,1 0 1,0 2,0 a 1,1 0 1,0 -2,0 M 445.74 97 m -0.5, 0 a 0.5,0.5 0 1,0 1,0 a 0.5,0.5 0 1,0 -1,0  M445.74 97 L445.74 97 457.74 97 M451.74 103 L451.74 103 451.74 91" id="h2286254435" class="r"></path><path d="M 677.16 436.25 m -1, 0 a 1,1 0 1,0 2,0 a 1,1 0 1,0 -2,0 M 677.16 436.25 m -0.5, 0 a 0.5,0.5 0 1,0 1,0 a 0.5,0.5 0 1,0 -1,0  M677.16 436.25 L677.16 436.25 689.16 436.25 M 677.16 442.25 m -1, 0 a 1,1 0 1,0 2,0 a 1,1 0 1,0 -2,0 M 677.16 442.25 m -0.5, 0 a 0.5,0.5 0 1,0 1,0 a 0.5,0.5 0 1,0 -1,0  M677.16 442.25 L677.16 442.25 684.16 436.25 677.16 430.25 M 677.16 430.25 m -1, 0 a 1,1 0 1,0 2,0 a 1,1 0 1,0 -2,0 M 677.16 430.25 m -0.5, 0 a 0.5,0.5 0 1,0 1,0 a 0.5,0.5 0 1,0 -1,0  M689.16 436.25 Q 705 436.25, 720.83 264.63 T 752.5 93 M 764.5 93 m -1, 0 a 1,1 0 1,0 2,0 a 1,1 0 1,0 -2,0 M 764.5 93 m -0.5, 0 a 0.5,0.5 0 1,0 1,0 a 0.5,0.5 0 1,0 -1,0  M764.5 93 L764.5 93 752.5 93 M758.5 99 L758.5 99 758.5 87" id="h1607168654" class="r"></path></g><g class="hrs"></g><g class="ts"><svg width="158.47" height="100" x="30" y="30" id="h311790747" class="t"><rect height="40" width="158.47" class="th"></rect><text x="13" y="25" class="tht">titles</text><rect height="60" width="158.47" class="t-bg"></rect><text x="13" y="61" class="tf pk">title_id<tspan x="145.47" class="ty">VARCHAR</tspan></text><path d="M7,14A2,2 0 0,1 5,12A2,2 0 0,1 7,10A2,2 0 0,1 9,12A2,2 0 0,1 7,14M12.65,10C11.83,7.67 9.61,6 7, 6A6, 6 0 0, 0 1, 12A6, 6 0 0, 0 7, 18C9.61, 18 11.83, 16.33 12.65, 14H17V18H21V14H23V10H12.65Z" class="i pk" transform="translate(67.68484375, 48) scale(0.65)"></path><text x="13" y="86" class="tf">title<tspan x="145.47" class="ty">VARCHAR</tspan></text></svg><svg width="168.49" height="225" x="277.25" y="40" id="h1639608377" class="t"><rect height="40" width="168.49" class="th"></rect><text x="13" y="25" class="tht">employees</text><rect height="185" width="168.49" class="t-bg"></rect><text x="13" y="61" class="tf pk">emp_no<tspan x="155.49" class="ty">INT</tspan></text><path d="M7,14A2,2 0 0,1 5,12A2,2 0 0,1 7,10A2,2 0 0,1 9,12A2,2 0 0,1 7,14M12.65,10C11.83,7.67 9.61,6 7, 6A6, 6 0 0, 0 1, 12A6, 6 0 0, 0 7, 18C9.61, 18 11.83, 16.33 12.65, 14H17V18H21V14H23V10H12.65Z" class="i pk" transform="translate(116.15992187500001, 48) scale(0.65)"></path><text x="13" y="86" class="tf fk">emp_title_id<tspan x="155.49" class="ty">VARCHAR</tspan></text><text x="13" y="111" class="tf">birth_date<tspan x="155.49" class="ty">DATE</tspan></text><text x="13" y="136" class="tf">first_name<tspan x="155.49" class="ty">VARCHAR</tspan></text><text x="13" y="161" class="tf">last_name<tspan x="155.49" class="ty">VARCHAR</tspan></text><text x="13" y="186" class="tf">sex<tspan x="155.49" class="ty">CHAR</tspan></text><text x="13" y="211" class="tf">hire_date<tspan x="155.49" class="ty">DATE</tspan></text></svg><svg width="167.16" height="100" x="764.5" y="36" id="h475896179" class="t"><rect height="40" width="167.16" class="th"></rect><text x="13" y="25" class="tht">departments</text><rect height="60" width="167.16" class="t-bg"></rect><text x="13" y="61" class="tf pk">dept_no<tspan x="154.16" class="ty">VARCHAR</tspan></text><path d="M7,14A2,2 0 0,1 5,12A2,2 0 0,1 7,10A2,2 0 0,1 9,12A2,2 0 0,1 7,14M12.65,10C11.83,7.67 9.61,6 7, 6A6, 6 0 0, 0 1, 12A6, 6 0 0, 0 7, 18C9.61, 18 11.83, 16.33 12.65, 14H17V18H21V14H23V10H12.65Z" class="i pk" transform="translate(76.37484375, 48) scale(0.65)"></path><text x="13" y="86" class="tf">dept_name<tspan x="154.16" class="ty">VARCHAR</tspan></text></svg><svg width="131.35" height="100" x="537" y="114" id="h2472833127" class="t"><rect height="40" width="131.35" class="th"></rect><text x="13" y="25" class="tht">salaries</text><rect height="60" width="131.35" class="t-bg"></rect><text x="13" y="61" class="tf fk">emp_no<tspan x="118.35" class="ty">INT</tspan></text><text x="13" y="86" class="tf">salary<tspan x="118.35" class="ty">DECIMAL</tspan></text></svg><svg width="143.83" height="100" x="535" y="228.25" id="h1676682957" class="t"><rect height="40" width="143.83" class="th"></rect><text x="13" y="25" class="tht">dept_manager</text><rect height="60" width="143.83" class="t-bg"></rect><text x="13" y="61" class="tf fk">dep_no<tspan x="130.83" class="ty">VARCHAR</tspan></text><text x="13" y="86" class="tf fk">emp_no<tspan x="130.83" class="ty">INT</tspan></text></svg><svg width="147.16" height="100" x="530" y="354.25" id="h1090417462" class="t"><rect height="40" width="147.16" class="th"></rect><text x="13" y="25" class="tht">dept_emp</text><rect height="60" width="147.16" class="t-bg"></rect><text x="13" y="61" class="tf fk">emp_no<tspan x="134.16" class="ty">INT</tspan></text><text x="13" y="86" class="tf fk">dept_no<tspan x="134.16" class="ty">VARCHAR</tspan></text></svg></g></g><text class="qdbd-link" x="10" y="20">www.quickdatabasediagrams.com</text></svg>